<?xml version="1.0" standalone="no"?>
<!DOCTYPE svg PUBLIC "-//W3C//DTD SVG 20010904//EN"
 "http://www.w3.org/TR/2001/REC-SVG-20010904/DTD/svg10.dtd">
<svg version="1.0" xmlns="http://www.w3.org/2000/svg"
 width="206.000000pt" height="156.000000pt" viewBox="0 0 206.000000 156.000000"
 preserveAspectRatio="xMidYMid meet">
<metadata>
Created by potrace 1.15, written by Peter Selinger 2001-2017
</metadata>
<g transform="translate(0.000000,156.000000) scale(0.100000,-0.100000)"
fill="#000000" stroke="none">
<path d="M1735 1540 c-12 -37 11 -49 101 -52 l84 -3 -332 -294 -333 -294 -233
237 c-170 174 -238 236 -252 234 -11 -2 -189 -122 -395 -266 -347 -244 -375
-266 -375 -293 0 -62 36 -43 410 221 l355 250 235 -235 c150 -150 242 -235
255 -235 12 0 162 125 375 314 l355 313 5 -95 c5 -99 17 -123 54 -109 14 6 16
27 16 167 l0 160 -159 0 c-152 0 -160 -1 -166 -20z"/>
<path d="M677 1163 c-4 -3 -7 -222 -7 -485 l0 -478 -155 0 -155 0 -2 353 -3
352 -29 3 c-16 2 -32 -2 -37 -10 -10 -15 -12 -728 -3 -752 5 -14 35 -16 229
-16 194 0 224 2 229 16 8 20 8 988 0 1008 -6 16 -54 22 -67 9z"/>
<path d="M805 1128 c-3 -7 -4 -233 -3 -503 l3 -490 225 0 225 0 0 305 0 305
-30 0 -30 0 -3 -272 -2 -273 -160 0 -160 0 -2 468 -3 467 -28 3 c-16 2 -29 -2
-32 -10z"/>
<path d="M1707 1133 c-4 -3 -7 -215 -7 -470 l0 -463 -155 0 -155 0 -2 288 -3
287 -29 3 c-16 2 -32 -2 -37 -10 -10 -15 -12 -598 -3 -622 5 -14 35 -16 229
-16 194 0 224 2 229 16 11 28 7 954 -4 975 -10 18 -50 26 -63 12z"/>
<path d="M7 63 c-4 -3 -7 -19 -7 -35 l0 -28 1031 0 1030 0 -3 32 -3 33 -1021
3 c-561 1 -1024 -1 -1027 -5z"/>
</g>
</svg>
