<svg xmlns="http://www.w3.org/2000/svg" viewBox="-422 421 160 160.2" enable-background="new -422 421 160 160.2"><style type="text/css">.st0{fill:#FFFFFF;}</style><path class="st0" d="M-262.1 496.7v-.6l-.3-3.6c0-.2 0-.3-.1-.5-.1-1.3-.3-2.5-.5-3.8v-.3c-.2-1.3-.5-2.6-.7-3.9v-.1c-.3-1.3-.6-2.7-1-4v-.1c-.4-1.3-.8-2.7-1.2-4v-.1c-.4-1.3-.9-2.6-1.4-3.9v-.1c-.5-1.3-1-2.5-1.6-3.7 0-.1-.1-.1-.1-.2-.5-1.2-1.1-2.4-1.7-3.6 0-.1-.1-.2-.1-.3-.6-1.1-1.2-2.3-1.9-3.4-.1-.1-.1-.2-.2-.3l-2.1-3.3c-.1-.1-.1-.2-.1-.2-1.5-2.3-3.2-4.6-5-6.8-.1-.1-.2-.3-.3-.4-.8-.9-1.5-1.8-2.3-2.6-.3-.4-.7-.7-1-1.1-.6-.6-1.2-1.3-1.8-1.9l-1.2-1.2c-.6-.6-1.2-1.1-1.8-1.6-3.2-2.8-6.6-5.4-10.2-7.7v67.5c0 23.7-19.3 42.9-42.9 42.9-23.6 0-43.3-19.1-43.3-42.8s19.2-42.9 42.9-42.9h5.8v-36.9c-1.9-.1-3.8-.2-5.8-.2-44.1 0-80 35.9-80 80 0 1.3 0 2.6.1 3.8 0 .4.1.9.1 1.3.1.8.1 1.6.2 2.4.1.5.1 1.1.2 1.6l.3 2.1c0 .6.1 1.2.2 1.8l.3 1.8c.1.6.2 1.3.4 1.9.1.5.2.9.3 1.4.7 2.9 1.5 5.7 2.5 8.5.4 1 .7 2 1.1 3 0 .1.1.1.1.2 9.5 23.5 29.7 41.5 54.6 47.7v-12.1c-.4-.1-.9-.3-1.3-.4-.6-.2-1.2-.4-1.7-.6-.5-.2-.9-.3-1.4-.5-.6-.2-1.1-.4-1.7-.7-.4-.2-.9-.4-1.3-.5-.6-.2-1.1-.5-1.7-.8l-1.2-.6c-.6-.3-1.1-.6-1.7-.9l-1.2-.6c-.6-.3-1.2-.7-1.7-1-.4-.2-.7-.4-1.1-.6l-1.8-1.2-.9-.6-2.1-1.5c-.2-.1-.4-.3-.5-.4-1.7-1.3-3.4-2.7-5-4.1l-.6-.6c-.6-.5-1.1-1.1-1.7-1.6l-.8-.8c-.5-.5-1-1-1.4-1.5-.3-.3-.5-.6-.8-.9-.4-.5-.9-1-1.3-1.5-.3-.3-.6-.7-.8-1l-1.2-1.5c-.3-.4-.5-.7-.8-1.1-.4-.5-.7-1-1.1-1.5-.3-.4-.5-.8-.8-1.2-.3-.5-.7-1-1-1.5-.2-.4-.5-.8-.7-1.2-.3-.5-.6-1-.9-1.6-.2-.4-.5-.8-.7-1.3-.3-.5-.6-1.1-.8-1.6-.2-.4-.4-.9-.6-1.3-.3-.5-.5-1.1-.7-1.6-.2-.4-.4-.9-.6-1.3-.2-.6-.4-1.1-.7-1.7-.2-.5-.3-.9-.5-1.4-.2-.6-.4-1.1-.6-1.7-.2-.5-.3-.9-.4-1.4-.2-.6-.3-1.2-.5-1.8-.1-.5-.3-.9-.4-1.4-.2-.6-.3-1.2-.4-1.8-.1-.5-.2-.9-.3-1.4-.1-.6-.2-1.3-.3-1.9-.1-.5-.2-.9-.2-1.4-.1-.7-.2-1.3-.3-2-.1-.4-.1-.9-.2-1.3-.1-.7-.1-1.5-.2-2.3 0-.4-.1-.7-.1-1.1-.1-1.1-.1-2.3-.1-3.4s0-2.3.1-3.4c0-.4.1-.7.1-1.1.1-.8.1-1.5.2-2.3 0-.4.1-.9.2-1.3.1-.7.2-1.3.3-2 .1-.5.2-.9.2-1.4.1-.6.2-1.3.3-1.9.1-.5.2-.9.3-1.4.1-.6.3-1.2.4-1.8.1-.5.3-.9.4-1.4.2-.6.3-1.2.5-1.8.1-.5.3-.9.4-1.4.2-.6.4-1.1.6-1.7.2-.5.3-.9.5-1.4.2-.6.4-1.1.7-1.7.2-.4.4-.9.6-1.3.2-.5.5-1.1.7-1.6.2-.4.4-.9.6-1.3.3-.5.5-1.1.8-1.6.2-.4.4-.8.7-1.3.3-.5.6-1 .9-1.6.2-.4.5-.8.7-1.2.3-.5.7-1 1-1.5.3-.4.5-.8.8-1.2.3-.5.7-1 1.1-1.5.3-.4.5-.7.8-1.1l1.2-1.5c.3-.3.5-.7.8-1 .4-.5.9-1 1.3-1.5.3-.3.5-.6.8-.9.5-.5 1-1 1.4-1.5l.8-.8c.6-.6 1.1-1.1 1.7-1.6l.6-.6c1.6-1.4 3.3-2.8 5-4.1.2-.1.3-.2.5-.4l2.1-1.5.9-.6 1.8-1.2c.3-.2.7-.4 1.1-.6.6-.3 1.1-.7 1.7-1l1.2-.6c.6-.3 1.1-.6 1.7-.9l1.2-.6c.6-.3 1.1-.5 1.7-.8.4-.2.9-.4 1.3-.5.6-.2 1.1-.5 1.7-.7.5-.2.9-.3 1.4-.5.6-.2 1.1-.4 1.7-.6.5-.1.9-.3 1.4-.4.6-.2 1.2-.3 1.7-.5.5-.1 1-.3 1.4-.4.6-.1 1.2-.3 1.8-.4l1.5-.3 1.8-.3c.5-.1 1-.2 1.5-.2.6-.1 1.2-.2 1.8-.2.5-.1 1-.1 1.5-.2h.6v13.8c-27.3 3.2-48.7 26.4-48.7 54.5s21.4 51.3 48.7 54.3v25.6c.9.1 1.8.1 2.6.2 1.1 0 2.1.1 3.2.1 2 0 3.9-.1 5.8-.2 31-2.2 57.2-22.3 68.4-49.9.5-1.1.9-2.3 1.3-3.4 0-.1.1-.2.1-.3.4-1.1.7-2.1 1-3.2.1-.2.1-.4.2-.6.3-1 .6-2 .8-3 .1-.3.1-.6.2-.9.2-.9.4-1.8.6-2.8.1-.4.2-.9.2-1.3.2-.8.3-1.7.4-2.5.1-.6.1-1.1.2-1.7.1-.7.2-1.4.3-2.2.1-.7.1-1.5.2-2.3 0-.6.1-1.1.1-1.7.1-1.3.1-2.7.1-4 .2-1.6.2-3 .1-4.5zm-74.1 72.4v-13.8c27.4-2.9 48.7-26.1 48.7-54.3v-41.1c8.9 11.8 13.8 26.2 13.8 41.1 0 35.7-27.5 65.1-62.5 68.1zM-361.6 501c0-10.8 8.8-19.6 19.6-19.6h5.8v-11.7h-5.8c-17.2 0-31.3 14-31.3 31.3s14 31.3 31.3 31.3 31.3-14 31.3-31.3v-73.7c-3.7-1.6-7.6-2.9-11.7-3.9V501c0 10.8-8.8 19.6-19.6 19.6s-19.6-8.8-19.6-19.6z"/></svg>