<?xml version="1.0" encoding="utf-8"?>
<!-- Generator: Adobe Illustrator 19.1.0, SVG Export Plug-In . SVG Version: 6.00 Build 0)  -->
<svg version="1.1" id="Layer_1" xmlns="http://www.w3.org/2000/svg" xmlns:xlink="http://www.w3.org/1999/xlink" x="0px" y="0px"
	 viewBox="0 0 654.8 160" style="enable-background:new 0 0 654.8 160;" xml:space="preserve">
<style type="text/css">
	.st0{fill:#7B77C9;}
</style>
<g>
	<g>
		<path class="st0" d="M159.9,75.7c0-0.2,0-0.4,0-0.6c-0.1-1.2-0.2-2.4-0.3-3.6c0-0.2,0-0.3-0.1-0.5c-0.1-1.3-0.3-2.5-0.5-3.8
			c0-0.1,0-0.2,0-0.3c-0.2-1.3-0.5-2.6-0.7-3.9c0,0,0-0.1,0-0.1c-0.3-1.3-0.6-2.7-1-4c0,0,0,0,0-0.1c-0.4-1.3-0.8-2.7-1.2-4
			c0,0,0,0,0-0.1c-0.4-1.3-0.9-2.6-1.4-3.9c0,0,0-0.1,0-0.1c-0.5-1.3-1-2.5-1.6-3.7c0-0.1-0.1-0.1-0.1-0.2c-0.5-1.2-1.1-2.4-1.7-3.6
			c0-0.1-0.1-0.2-0.1-0.3c-0.6-1.1-1.2-2.3-1.9-3.4c-0.1-0.1-0.1-0.2-0.2-0.3c-0.7-1.1-1.4-2.2-2.1-3.3c-0.1-0.1-0.1-0.2-0.1-0.2
			c-1.5-2.3-3.2-4.6-5-6.8c-0.1-0.1-0.2-0.3-0.3-0.4c-0.8-0.9-1.5-1.8-2.3-2.6c-0.3-0.4-0.7-0.7-1-1.1c-0.6-0.6-1.2-1.3-1.8-1.9
			c-0.4-0.4-0.8-0.8-1.2-1.2c-0.6-0.6-1.2-1.1-1.8-1.6c-3.2-2.8-6.6-5.4-10.2-7.7l0,67.5c0,23.7-19.3,42.9-42.9,42.9
			S37.1,103.7,37.1,80S56.3,37.1,80,37.1h5.8V0.2C83.9,0.1,82,0,80,0C35.9,0,0,35.9,0,80c0,1.3,0,2.6,0.1,3.8c0,0.4,0.1,0.9,0.1,1.3
			c0.1,0.8,0.1,1.6,0.2,2.4c0.1,0.5,0.1,1.1,0.2,1.6c0.1,0.7,0.2,1.4,0.3,2.1C0.9,91.8,1,92.4,1.1,93c0.1,0.6,0.2,1.2,0.3,1.8
			c0.1,0.6,0.2,1.3,0.4,1.9c0.1,0.5,0.2,0.9,0.3,1.4c0.7,2.9,1.5,5.7,2.5,8.5l0,0c0.4,1,0.7,2,1.1,3c0,0.1,0.1,0.1,0.1,0.2
			c9.5,23.5,29.7,41.5,54.6,47.7v-12.1c-0.4-0.1-0.9-0.3-1.3-0.4c-0.6-0.2-1.2-0.4-1.7-0.6c-0.5-0.2-0.9-0.3-1.4-0.5
			c-0.6-0.2-1.1-0.4-1.7-0.7c-0.4-0.2-0.9-0.4-1.3-0.5c-0.6-0.2-1.1-0.5-1.7-0.8c-0.4-0.2-0.8-0.4-1.2-0.6c-0.6-0.3-1.1-0.6-1.7-0.9
			c-0.4-0.2-0.8-0.4-1.2-0.6c-0.6-0.3-1.2-0.7-1.7-1c-0.4-0.2-0.7-0.4-1.1-0.6c-0.6-0.4-1.2-0.8-1.8-1.2c-0.3-0.2-0.6-0.4-0.9-0.6
			c-0.7-0.5-1.4-1-2.1-1.5c-0.2-0.1-0.4-0.3-0.5-0.4c-1.7-1.3-3.4-2.7-5-4.1c-0.2-0.2-0.4-0.4-0.6-0.6c-0.6-0.5-1.1-1.1-1.7-1.6
			c-0.3-0.3-0.5-0.5-0.8-0.8c-0.5-0.5-1-1-1.4-1.5c-0.3-0.3-0.5-0.6-0.8-0.9c-0.4-0.5-0.9-1-1.3-1.5c-0.3-0.3-0.6-0.7-0.8-1
			c-0.4-0.5-0.8-1-1.2-1.5c-0.3-0.4-0.5-0.7-0.8-1.1c-0.4-0.5-0.7-1-1.1-1.5c-0.3-0.4-0.5-0.8-0.8-1.2c-0.3-0.5-0.7-1-1-1.5
			c-0.2-0.4-0.5-0.8-0.7-1.2c-0.3-0.5-0.6-1-0.9-1.6c-0.2-0.4-0.5-0.8-0.7-1.3c-0.3-0.5-0.6-1.1-0.8-1.6c-0.2-0.4-0.4-0.9-0.6-1.3
			c-0.3-0.5-0.5-1.1-0.7-1.6c-0.2-0.4-0.4-0.9-0.6-1.3c-0.2-0.6-0.4-1.1-0.7-1.7c-0.2-0.5-0.3-0.9-0.5-1.4c-0.2-0.6-0.4-1.1-0.6-1.7
			c-0.2-0.5-0.3-0.9-0.4-1.4c-0.2-0.6-0.3-1.2-0.5-1.8c-0.1-0.5-0.3-0.9-0.4-1.4c-0.2-0.6-0.3-1.2-0.4-1.8c-0.1-0.5-0.2-0.9-0.3-1.4
			c-0.1-0.6-0.2-1.3-0.3-1.9c-0.1-0.5-0.2-0.9-0.2-1.4c-0.1-0.7-0.2-1.3-0.3-2c-0.1-0.4-0.1-0.9-0.2-1.3c-0.1-0.7-0.1-1.5-0.2-2.3
			c0-0.4-0.1-0.7-0.1-1.1c-0.1-1.1-0.1-2.3-0.1-3.4s0-2.3,0.1-3.4c0-0.4,0.1-0.7,0.1-1.1c0.1-0.8,0.1-1.5,0.2-2.3
			c0-0.4,0.1-0.9,0.2-1.3c0.1-0.7,0.2-1.3,0.3-2c0.1-0.5,0.2-0.9,0.2-1.4c0.1-0.6,0.2-1.3,0.3-1.9c0.1-0.5,0.2-0.9,0.3-1.4
			c0.1-0.6,0.3-1.2,0.4-1.8c0.1-0.5,0.3-0.9,0.4-1.4c0.2-0.6,0.3-1.2,0.5-1.8c0.1-0.5,0.3-0.9,0.4-1.4c0.2-0.6,0.4-1.1,0.6-1.7
			c0.2-0.5,0.3-0.9,0.5-1.4c0.2-0.6,0.4-1.1,0.7-1.7c0.2-0.4,0.4-0.9,0.6-1.3c0.2-0.5,0.5-1.1,0.7-1.6c0.2-0.4,0.4-0.9,0.6-1.3
			c0.3-0.5,0.5-1.1,0.8-1.6c0.2-0.4,0.4-0.8,0.7-1.3c0.3-0.5,0.6-1,0.9-1.6c0.2-0.4,0.5-0.8,0.7-1.2c0.3-0.5,0.7-1,1-1.5
			c0.3-0.4,0.5-0.8,0.8-1.2c0.3-0.5,0.7-1,1.1-1.5c0.3-0.4,0.5-0.7,0.8-1.1c0.4-0.5,0.8-1,1.2-1.5c0.3-0.3,0.5-0.7,0.8-1
			c0.4-0.5,0.9-1,1.3-1.5c0.3-0.3,0.5-0.6,0.8-0.9c0.5-0.5,1-1,1.4-1.5c0.3-0.3,0.5-0.5,0.8-0.8c0.6-0.6,1.1-1.1,1.7-1.6
			c0.2-0.2,0.4-0.4,0.6-0.6c1.6-1.4,3.3-2.8,5-4.1c0.2-0.1,0.3-0.2,0.5-0.4c0.7-0.5,1.4-1,2.1-1.5c0.3-0.2,0.6-0.4,0.9-0.6
			c0.6-0.4,1.2-0.8,1.8-1.2c0.3-0.2,0.7-0.4,1.1-0.6c0.6-0.3,1.1-0.7,1.7-1c0.4-0.2,0.8-0.4,1.2-0.6c0.6-0.3,1.1-0.6,1.7-0.9
			c0.4-0.2,0.8-0.4,1.2-0.6c0.6-0.3,1.1-0.5,1.7-0.8c0.4-0.2,0.9-0.4,1.3-0.5c0.6-0.2,1.1-0.5,1.7-0.7c0.5-0.2,0.9-0.3,1.4-0.5
			c0.6-0.2,1.1-0.4,1.7-0.6c0.5-0.1,0.9-0.3,1.4-0.4c0.6-0.2,1.2-0.3,1.7-0.5c0.5-0.1,1-0.3,1.4-0.4c0.6-0.1,1.2-0.3,1.8-0.4
			c0.5-0.1,1-0.2,1.5-0.3c0.6-0.1,1.2-0.2,1.8-0.3c0.5-0.1,1-0.2,1.5-0.2c0.6-0.1,1.2-0.2,1.8-0.2c0.5-0.1,1-0.1,1.5-0.2
			c0.2,0,0.4,0,0.6,0v13.8C46.8,28.7,25.4,51.9,25.4,80s21.4,51.3,48.7,54.3v3v10.9v11.7c0.9,0.1,1.8,0.1,2.6,0.2
			c1.1,0,2.1,0.1,3.2,0.1c2,0,3.9-0.1,5.8-0.2v0c31-2.2,57.2-22.3,68.4-49.9c0,0,0,0,0,0c0.5-1.1,0.9-2.3,1.3-3.4
			c0-0.1,0.1-0.2,0.1-0.3c0.4-1.1,0.7-2.1,1-3.2c0.1-0.2,0.1-0.4,0.2-0.6c0.3-1,0.6-2,0.8-3c0.1-0.3,0.1-0.6,0.2-0.9
			c0.2-0.9,0.4-1.8,0.6-2.8c0.1-0.4,0.2-0.9,0.2-1.3c0.2-0.8,0.3-1.7,0.4-2.5c0.1-0.6,0.1-1.1,0.2-1.7c0.1-0.7,0.2-1.4,0.3-2.2
			c0.1-0.7,0.1-1.5,0.2-2.3c0-0.6,0.1-1.1,0.1-1.7c0.1-1.3,0.1-2.7,0.1-4C160,78.6,160,77.2,159.9,75.7z M85.8,148.1v-13.8
			c27.4-2.9,48.7-26.1,48.7-54.3l0-41.1c8.9,11.8,13.8,26.2,13.8,41.1C148.3,115.7,120.8,145.1,85.8,148.1z"/>
		<path class="st0" d="M60.4,80c0-10.8,8.8-19.6,19.6-19.6h5.8V48.7H80c-17.2,0-31.3,14-31.3,31.3s14,31.3,31.3,31.3
			s31.3-14,31.3-31.3V6.3c-3.7-1.6-7.6-2.9-11.7-3.9V80c0,10.8-8.8,19.6-19.6,19.6S60.4,90.8,60.4,80z"/>
	</g>
	<g>
		<path class="st0" d="M261.8,110.3c-5.5,1.7-10,1.7-15.7,1.7h-20.4V48h22.9c2.9,0,6.4,0.2,9.2,0.7c3.2,0.6,10.1,2.7,15.4,9.6
			c2.8,3.7,6.6,10.9,6.6,22.2C280,93.2,275.1,106,261.8,110.3z M261.1,63c-1.1-0.9-3.3-2.5-6.7-3.4c-3.1-0.8-4.7-0.7-10.3-0.7h-6.3
			v42.4h3.2c6.4,0,10.2-0.1,13.1-0.5c1.6-0.3,6.2-1,9.4-5c4-5.1,3.8-14.4,3.8-15.2C267.3,70.9,264.4,65.9,261.1,63z"/>
		<path class="st0" d="M301.8,112V48h11.8v64H301.8z"/>
		<path class="st0" d="M366.9,112h-16.1l-18.9-64h12.6l14.3,50.5l14-50.5h12.3L366.9,112z"/>
		<path class="st0" d="M403.4,112V48h45.5v10.7h-33.7v15h30.9v10.3h-30.9v17.1h36V112H403.4z"/>
		<path class="st0" d="M507.3,112l-12.6-23.8h-10.8V112H472V48h26.2c2.9,0,11.5,0.3,17.2,7.8c3.7,4.9,3.9,10.4,3.9,12.5
			c0,1-0.1,4.2-1.2,7.2c-1,2.6-4.1,8.2-11.4,10.4L521,112H507.3z M503.2,60.2c-2.1-1.4-4.5-1.9-9.6-1.9h-9.7v19.9h4.3
			c7,0,11.3,0,14.2-1.5c1.8-1,4.8-3.4,4.8-8.5C507.2,66.6,507,62.8,503.2,60.2z"/>
		<path class="st0" d="M584.8,107c-7.7,6.5-18,6.6-20.9,6.6c-3.8,0-16-0.2-24.9-9.5c-1.1-1.2-2.3-2.7-3.1-4.2l10.1-7
			c2.8,4.2,8.1,9.6,19.9,9.6c0.5,0,2.8,0,4.7-0.5c1.4-0.3,7.6-2,7.6-8c0-0.6-0.1-2.4-1.2-3.8c-2.2-2.9-8-3.7-11.2-4.4l-7.6-1.7
			c-3.3-0.7-6.8-1.5-9.7-3c-3-1.5-9.2-5.6-9.2-14.9c0-1.5,0.2-5.6,2.4-9.4c2.9-4.9,9.9-10.5,22.8-10.5c5.7,0,17,0.9,25.8,13
			l-9.9,7.3c-2-3.2-6.5-9.5-16.6-9.5c-0.6,0-8.7-0.1-11.3,4.9c-0.5,1-0.7,1.9-0.7,2.9c0,1.1,0.3,2,0.8,2.9c1.5,2.6,5.1,3.4,11,4.7
			l6.6,1.5c6.1,1.4,12.8,3.2,17,8.2c1.8,2,3.7,4.9,3.7,10.8C591,98.8,589.2,103.2,584.8,107z"/>
		<path class="st0" d="M637.1,58.8V112h-12V58.8h-17.4V48h47.1v10.8H637.1z"/>
	</g>
</g>
</svg>
