<?xml version="1.0" encoding="iso-8859-1"?>
<!-- Generator: Adobe Illustrator 19.0.0, SVG Export Plug-In . SVG Version: 6.00 Build 0)  -->
<svg version="1.1" id="Capa_1" xmlns="http://www.w3.org/2000/svg" xmlns:xlink="http://www.w3.org/1999/xlink" x="0px" y="0px"
	 viewBox="0 0 511.998 511.998" style="enable-background:new 0 0 511.998 511.998;" xml:space="preserve">
<g>
	<g>
		<g>
			<path d="M234.665,64c0,5.888,4.779,10.667,10.667,10.667S255.998,69.888,255.998,64s-4.779-10.667-10.667-10.667
				S234.665,58.112,234.665,64z"/>
			<path d="M141.355,405.332l-0.002,0.002c0-5.888-4.779-10.667-10.667-10.667H53.332c-17.642,0-32-14.357-32-32V352h186.261
				c5.91,0,10.667-4.779,10.71-10.688c0-5.888-4.779-10.667-10.667-10.667l-163.69-0.021c3.883-16.555,16.726-29.974,33.834-34.262
				l45.867-11.477c3.818-0.96,6.826-3.946,7.766-7.766l5.461-21.824c0.938-3.755-0.234-7.723-3.05-10.368
				c-10.326-9.706-17.174-23.914-18.304-38.037c-0.448-5.547-5.078-9.813-10.646-9.813l-2.261-0.406l-1.174-22.784
				c3.072,0,5.974-1.302,8-3.606c2.026-2.282,2.966-5.354,2.581-8.384c-1.003-7.808-2.56-21.909-2.56-26.496
				c0-13.717,0-27.883,39.531-28.288c2.176-0.021,4.331-0.704,6.102-1.984C167.871,96,182.335,96,189.29,96
				c13.994,0,23.339,3.883,28.586,11.883c2.389,3.669,3.626,6.933,3.563,9.472c-0.128,5.888,4.544,10.773,10.432,10.901
				c6.784-0.042,10.773-4.565,10.901-10.432c0.149-6.976-2.219-14.25-7.062-21.632c-6.422-9.814-19.69-21.526-46.422-21.526
				c-8.021,0-26.261,0-43.818,11.178c-50.773,1.557-57.386,27.2-57.386,49.557c0,4.416,0.874,13.099,1.621,19.883
				c-2.154,1.195-4.117,2.773-5.802,4.672c-4.138,4.694-6.08,10.923-5.29,17.13l2.773,22.251
				c1.003,7.936,6.208,14.442,13.909,17.386c2.752,14.357,9.643,28.288,19.392,39.168l-2.453,9.856l-39.659,9.92
				c-26.646,6.678-46.144,28.544-50.346,54.997h-0.896V63.999c0-17.643,14.357-32,32-32h384c17.642,0,32,14.357,32,32v298.666
				c0,4.566-1.046,9.088-3.115,13.504c-2.496,5.333-0.192,11.69,5.141,14.187c5.376,2.496,11.712,0.192,14.187-5.142
				c3.392-7.274,5.12-14.848,5.12-22.549V63.998c0-29.397-23.936-53.333-53.333-53.333h-384C23.936,10.665,0,34.601,0,63.998
				v298.667c0,29.398,23.936,53.333,53.334,53.333h77.354C136.598,415.998,141.355,411.22,141.355,405.332z"/>
			<path d="M416.425,352h-0.214c-5.888,0-10.56,4.779-10.56,10.667s4.885,10.667,10.773,10.667s10.667-4.779,10.667-10.667
				S422.313,352,416.425,352z"/>
			<path d="M442.749,401.962l0.001,0.001l-58.773-14.678l-4.352-17.43c15.573-15.914,26.325-37.248,29.909-59.264
				c9.152-3.286,16.086-11.498,17.365-21.632l3.947-31.53c0.938-7.466-1.366-14.976-6.294-20.63
				c-2.432-2.794-5.398-5.013-8.682-6.549l1.323-26.667l5.184-5.206c9.578-10.176,17.536-27.563,1.152-52.565
				c-12.374-18.901-33.238-28.48-62.059-28.48c-11.115,0-36.608,0-60.63,15.829c-69.248,1.728-78.229,35.968-78.229,65.792
				c0,6.784,1.494,20.992,2.624,30.784c-3.669,1.536-6.976,3.862-9.664,6.912c-5.034,5.674-7.36,13.248-6.422,20.778l3.947,31.531
				c1.344,10.838,9.173,19.478,19.264,22.229c3.563,21.099,13.76,41.686,28.373,57.238l-4.714,18.858l-58.773,14.677
				c-40.789,10.176-69.248,46.656-69.248,88.704c0,2.837,1.109,5.568,3.115,7.552c2.005,1.984,4.736,3.115,7.552,3.115
				l362.667-0.043c5.888,0,10.667-4.779,10.667-10.667C511.998,448.618,483.517,412.159,442.749,401.962z M150.144,479.958l-0.001,0
				c4.203-27.563,24.512-50.368,52.288-57.302l64.982-16.234c3.818-0.96,6.826-3.947,7.766-7.766l7.722-30.934
				c0.96-3.754-0.234-7.722-3.05-10.368c-15.424-14.464-25.643-35.69-27.328-56.747c-0.448-5.546-5.078-9.813-10.646-9.813h-2.56
				c-2.56,0-4.736-1.92-5.056-4.458l-3.946-31.531c-0.256-1.984,0.661-3.37,1.237-4.01s1.835-1.728,5.461-1.728
				c3.072,0,5.974-1.302,8-3.606c2.027-2.282,2.966-5.354,2.582-8.384c-1.003-8.022-3.648-30.528-3.648-38.08
				c0-19.584,0-43.925,60.394-44.523c2.176-0.021,4.331-0.704,6.102-1.984c16.982-12.139,35.328-13.782,51.051-13.782
				c21.162,0,36.032,6.336,44.202,18.838c9.344,14.272,5.824,21.291,1.366,26.026l-7.872,7.893
				c-1.878,1.878-2.987,4.374-3.115,7.018l-1.92,39.467c-0.128,2.901,0.917,5.717,2.901,7.829c1.962,2.112,4.736,3.328,7.638,3.349
				c2.005,0.022,3.242,1.109,3.797,1.75s1.451,1.984,1.216,3.947l-3.947,31.53c-0.32,2.539-2.496,4.458-5.824,4.458
				c-5.568,0-10.198,4.267-10.646,9.814c-1.728,21.717-12.416,43.349-28.63,57.878c-2.944,2.624-4.181,6.677-3.221,10.517
				l7.403,29.632c0.96,3.818,3.946,6.826,7.766,7.766l64.982,16.234c27.733,6.933,48.042,29.76,52.266,57.344L150.144,479.958z"/>
		</g>
	</g>
</g>
<g>
</g>
<g>
</g>
<g>
</g>
<g>
</g>
<g>
</g>
<g>
</g>
<g>
</g>
<g>
</g>
<g>
</g>
<g>
</g>
<g>
</g>
<g>
</g>
<g>
</g>
<g>
</g>
<g>
</g>
</svg>
