<svg id="Layer_1" data-name="Layer 1" xmlns="http://www.w3.org/2000/svg" viewBox="0 0 500 500"><defs><style>.cls-1{fill:#e25252;}.cls-2{fill:#fff;}</style></defs><title>иконки андре</title><circle class="cls-1" cx="250" cy="250" r="206.3"/><path class="cls-2" d="M241.68,198.52v.41l10.16-.18q1.23,0,2.88,0c8,0,26.59.54,60.76,4.12,24.83,2.61,40.46,18.07,49.2,30.57,10.52,15.05,14.5,30.69,14.21,35.35-.22,3.58-1.6,5-2.61,5.77a8.23,8.23,0,0,1-2.9,1.36c-5,.36-42.9,3-53.17,3-.73,0-1.07,0-1.18,0a6.11,6.11,0,0,1-4.2-1.88c-1.35-1.74-1.76-5.46-1.13-10.21,2.81-21-12.62-31.85-23.68-34l-.75-.15-.76,0-30.77-1.25,0-1.08-10.41.57-36.31,2-.76,0-.75.15c-11,2.31-26.31,13.36-23.22,34.34.7,4.73.34,8.46-1,10.22a6.09,6.09,0,0,1-4.17,1.94c-.15,0-.73,0-2.15,0-11.72,0-47.86-2.07-52.33-2.32a9.17,9.17,0,0,1-2.46-1.07c-1.27-.81-2.77-2.22-3.06-6-.35-4.65,3.42-20.35,13.73-35.54,8.58-12.62,24-28.29,48.79-31.23,30.29-3.59,48.31-4.64,58.05-4.89m4.9-10.07c-8.21,0-27.33.66-64.13,5-52.81,6.26-72.43,62.7-71.31,77.46s14.45,16.24,14.45,16.24,40.5,2.37,53.37,2.37a31.83,31.83,0,0,0,3.38-.12c5.58-.74,16.66-4.26,13.82-23.54s15.38-23.09,15.38-23.09l36.31-2V241l40.25,1.63s18.27,3.57,15.69,22.88,8.55,22.68,14.15,23.35c.46.05,1.24.08,2.27.08,11.44,0,54.43-3.1,54.43-3.1s13.31-1.67,14.23-16.43-19.45-70.94-72.35-76.49c-33.66-3.53-52.53-4.18-61.8-4.18q-1.75,0-3.06,0v-.17s-1.51-.13-5.08-.13Z"/></svg>