<svg id="Layer_1" data-name="Layer 1" xmlns="http://www.w3.org/2000/svg" viewBox="0 0 500 500"><defs><style>.cls-1{fill:#878787;}.cls-2{fill:#fff;}</style></defs><title>иконки андре</title><circle class="cls-1" cx="250" cy="250" r="206.3"/><path class="cls-2" d="M329.87,157.79s-40.17,26.08-44,29.73S275.73,200,288.54,212.9s1.21,25.9,1.21,25.9l-26.24,21.58-.08-.1-31.2,21.07s-15.72,7.43-24.48-8.54-19-12.34-23.58-9.74-41,33.68-41,33.68-9.1,8.63-1.61,20.25,53.93,42.62,96.82,17.5c30.74-18,45.32-28.37,51.12-32.8l.1.13s13.09-8.05,49.38-42,19.79-87.31,10.77-97.8S329.87,157.79,329.87,157.79Z"/></svg>