<?xml version="1.0" encoding="utf-8"?>
<!-- Generator: Adobe Illustrator 23.1.0, SVG Export Plug-In . SVG Version: 6.00 Build 0)  -->
<svg version="1.1" id="Layer_1" xmlns="http://www.w3.org/2000/svg" xmlns:xlink="http://www.w3.org/1999/xlink" x="0px" y="0px"
	 viewBox="0 0 500 500" style="enable-background:new 0 0 500 500;" xml:space="preserve">
<style type="text/css">
	.st0{fill:#FFFFFF;}
</style>
<path class="cam0" d="M369.28,192.77l-36.36,22.13l-4.1,2.5v-45.51c0-8.28-6.72-15-15-15H129.39c-11.05,0-20,8.95-20,20v151.24
	c0,8.28,6.72,15,15,15h189.43c8.28,0,15-6.72,15-15v-45.51l4.1,2.5l36.36,22.13c9.48,5.77,21.33-1.44,21.33-12.98V250v-44.25
	C390.61,194.21,378.76,187,369.28,192.77z M249.82,257l-26.88,16.36l-24.19,14.72c-6.31,3.84-14.19-0.96-14.19-8.64V250v-29.45
	c0-7.68,7.88-12.47,14.19-8.64l24.19,14.72L249.82,243C254.93,246.11,254.93,253.89,249.82,257z"/>
<rect x="390.61" y="133.72" class="st0" width="1.97" height="1.97"/>
</svg>
