<svg id="Layer_1" data-name="Layer 1" xmlns="http://www.w3.org/2000/svg" viewBox="0 0 500 500"><defs><style>.cls-1{fill:#878787;}.cls-2{fill:#fff;}</style></defs><title>иконки андре</title><circle class="cls-1" cx="250" cy="250" r="206.3"/><path class="cls-2" d="M369.28,192.77l-36.36,22.12-4.1,2.5V171.88a15,15,0,0,0-15-15H129.39a20,20,0,0,0-20,20V328.12a15,15,0,0,0,15,15H313.82a15,15,0,0,0,15-15V282.61l4.1,2.5,36.36,22.12c9.48,5.77,21.33-1.44,21.33-13v-88.5C390.61,194.21,378.76,187,369.28,192.77ZM249.82,257l-26.88,16.36-24.19,14.72c-6.31,3.84-14.19-1-14.19-8.63v-58.9c0-7.67,7.88-12.47,14.19-8.63l24.19,14.72L249.82,243A8.31,8.31,0,0,1,249.82,257Z"/></svg>