<svg id="Layer_1" data-name="Layer 1" xmlns="http://www.w3.org/2000/svg" viewBox="0 0 500 500"><defs><style>.cls-1{fill:#e25252;}.cls-2{fill:#fff;}</style></defs><title>иконки андре</title><circle class="cls-1" cx="250" cy="250" r="206.3"/><path class="cls-2" d="M372.43,192.77l-36.36,22.12-10.39,6.33v57.56l10.39,6.33,36.36,22.12c9.47,5.77,21.32-1.44,21.32-13v-88.5C393.75,194.21,381.9,187,372.43,192.77Z"/><path class="cls-2" d="M310.68,156.88H126.25a20,20,0,0,0-20,20V328.12a15,15,0,0,0,15,15H310.68a15,15,0,0,0,15-15V171.88A15,15,0,0,0,310.68,156.88Zm5,171.24a5,5,0,0,1-5,5H121.25a5,5,0,0,1-5-5V176.88a10,10,0,0,1,10-10H310.68a5,5,0,0,1,5,5Z"/><path class="cls-2" d="M246.68,243,219.8,226.64l-24.2-14.72c-6.3-3.84-14.19,1-14.19,8.63v58.9c0,7.67,7.89,12.47,14.19,8.63l24.2-14.72L246.68,257A8.31,8.31,0,0,0,246.68,243Z"/><rect class="cls-1" x="240.56" y="97.57" width="10" height="309.72" transform="translate(-102.98 202.02) rotate(-37.56)"/><rect class="cls-2" x="249.45" y="92.72" width="10" height="309.72" transform="translate(-98.18 206.43) rotate(-37.56)"/></svg>