<?xml version="1.0" encoding="iso-8859-1"?>
<!-- Generator: Adobe Illustrator 22.1.0, SVG Export Plug-In . SVG Version: 6.00 Build 0)  -->
<svg xmlns="http://www.w3.org/2000/svg" xmlns:xlink="http://www.w3.org/1999/xlink" version="1.1" id="Layer_1_1_" x="0px" y="0px" viewBox="0 0 64 64" style="enable-background:new 0 0 64 64;" xml:space="preserve" width="512" height="512">
<g>
	<path d="M61,53V18c0-2.757-2.243-5-5-5H42.702l10.67-4.493l-3.9-7.801L21.043,13H8c-2.757,0-5,2.243-5,5v35H1v5   c0,2.757,2.243,5,5,5h52c2.757,0,5-2.243,5-5v-5H61z M56,15c1.654,0,3,1.346,3,3v35h-2V19c0-1.103-0.897-2-2-2h-2h-1H33.202l4.75-2   H56z M23,55h18v1c0,0.551-0.449,1-1,1H24c-0.551,0-1-0.449-1-1V55z M9,53V19h2v26h10.624c2.079,3.581,5.946,6,10.376,6   s8.297-2.419,10.376-6H53V19h2v34H9z M40.139,11.909l-3.011,1.268l1.17-5.459l3.02-1.306L40.139,11.909z M43.572,5.437l3.02-1.306   L45.4,9.694l-3.012,1.268L43.572,5.437z M34.879,14.124l-3.012,1.268l1.156-5.393l3.02-1.306L34.879,14.124z M32,49   c-5.514,0-10-4.486-10-10s4.486-10,10-10s10,4.486,10,10S37.514,49,32,49z M32,27c-6.617,0-12,5.383-12,12   c0,1.404,0.255,2.747,0.7,4H13V25h38v18h-7.7c0.445-1.253,0.7-2.596,0.7-4C44,32.383,38.617,27,32,27z M31.586,19l4,4h-3.172l-4-4   H31.586z M25.586,19l4,4h-3.172l-4-4H25.586z M19.586,19l4,4h-3.172l-4-4H19.586z M13,19h0.586l4,4H13V19z M51,23h-0.586l-4-4H51   V23z M43.586,19l4,4h-3.172l-4-4H43.586z M37.586,19l4,4h-3.172l-4-4H37.586z M29.619,16.338L28.047,17h-1.31l1.012-4.721   l3.02-1.306L29.619,16.338z M24.691,17h-2.74l0.523-2.44l3.02-1.306L24.691,17z M19.906,17h-3.073l3.387-1.465L19.906,17z    M50.628,7.493l-2.98,1.255l1.082-5.05L50.628,7.493z M5,18c0-1.654,1.346-3,3-3h8.418l-4.625,2H11H9c-1.103,0-2,0.897-2,2v34H5V18   z M61,58c0,1.654-1.346,3-3,3H6c-1.654,0-3-1.346-3-3v-3h18v1c0,1.654,1.346,3,3,3h16c1.654,0,3-1.346,3-3v-1h18V58z"/>
	<rect x="7" y="57" width="2" height="2"/>
	<rect x="11" y="57" width="2" height="2"/>
	<rect x="15" y="57" width="2" height="2"/>
	<path d="M28,33.382v11.236L39.236,39L28,33.382z M30,36.618L34.764,39L30,41.382V36.618z"/>
</g>
</svg>
