<svg xmlns="http://www.w3.org/2000/svg" viewBox="-438.5 480.5 16 16" enable-background="new -438.5 480.5 16 16"><style type="text/css">.st0{fill:#FFFFFF;}</style><path class="st0" d="M-422.5 488.4zm-3 1.4c0-.3.2-.6.6-.7.3.4 0 1-.4 1.1-.1 0-.2-.3-.2-.4zm-.9 1.5c-.3-.2-.7-.8-.8-1.2 0-.1 0-.4.2-.5.6-.5 1 .1 1.1.3 0 0 .3.6.3.8 0 .4-.5.8-.8.6zm-1.2-1.5c0 .1 0 .2-.1.2l.1-.2zm-.1.2h-.2.2zm-.1-3.7c-.5 1.2-2.7-1.2-3.2-.9-.4.2-3.4 2.9-3.8 3.1-1.6 1.3-1.4 1.8-1.4 1.9 0 0-.4.1-1.5-.2-.3-.1-.5-.2-.8-.2.1-.4.3-.8.4-1.2.5-1.2 1-2.6 1.5-3.8.1 0 .3.1.4.2 1 .5 2.1 1 3.1 0 .5-.6 1.5-1.4 2.4-1.5.6-.1 3.2 2.1 2.9 2.6zm-.5 4.3c.3-.2.5-.2.7-.1.4.2.9 1 .9 1 .1.6-.5 1-1 .8-.2-.1-.6-.5-.7-.7-.1-.3-.1-.8.1-1zm.4 2c.2.4-.5.9-1.2.6v-.1c0-.1-.2-.3-.2-.4-.1-.3.1-.6.3-.8.3-.2 1 .4 1.1.7zm-1.5-.9c-.3.3-.3.4-.3.8 0 .1.1.3.1.4-1.4.9-1.4-.3-1.4-.3 1.6-1.5 1.8-2.4 1.8-2.4-.1 0-1.6 1.8-2.2 2.1-.6.3-.9.2-1.2.1-.1-.1-.2-.2-.2-.4 1-.3 2.7-2.4 2.7-2.7 0 0-2 2.2-3 2.4-.2.1-.3.1-.5.1-.3 0-.4 0-.5-.2-.1-.1-.1-.4-.1-.7 1.4-.8 2.9-2.4 2.7-2.6l-1.5 1.2c-.7.5-2.1 1.4-2.1 1.4-.2.1-.4 0-.7-.1-.1 0-.1-.1-.1-.2-.7-.7 1.9-2 4.8-4.8.5.2 1.7 1.3 2.6 1.3.4 0 1.1-.4 1.1-.8 0-.6-1.4-1.7-2-2.2.5 0 1.6.1 2.2.2.4 0 .9.1 1.4.1.7 0 1.2-.1 1.7-.4.5 1.1 1.2 4.4 1.1 4.4-.7 0-1.7 0-2.4.3-.3.2-.6.4-.7.7-.4-.4-1-.4-1.4-.1-.2.1-.2.4-.3.7 0 .1-.1.1-.1.2h-.2c-.2 0-.5-.1-.8.1-.3.2-.3.7-.2 1 0 .1 0 .2.1.3.1-.1-.3 0-.4.1z"/></svg>