<svg xmlns="http://www.w3.org/2000/svg" viewBox="-418.8 471.7 16 16" enable-background="new -418.8 471.7 16 16"><style type="text/css">.st0{fill:#FFFFFF;}</style><path class="st0" d="M-406.4 483s0 .6-.1.9c0 0-1.6 1-4.2 1v-.1.1c-2.6 0-4.2-1-4.2-1-.1-.3-.1-.9-.1-.9 0-.5 0-1.4.8-1.6 1.1-.3 2-.7 2-.7.2-.3.2-.8.2-.8-.3-.4-.5-.8-.6-1.2h-.1c-.1 0-.2-.1-.4-.7-.2-.7 0-.8.2-.8h.1s-.5-1.7.7-2.4c0 0-.2-.2-.2-.4 0 0 .5.1 1.1.1.2 0 .5 0 .7-.1h.2c.5 0 1 .4 1 .8.2 0 1.1.1.7 2h.1c.2 0 .3.1.2.8-.1.6-.3.7-.4.7h-.1c-.1.4-.2.8-.6 1.2 0 0 0 .5.2.7 0 0 .9.5 2 .7.8.3.8 1.3.8 1.7zm-9.2.1c0-.3 0-.7.1-1.1.1-.3.2-.5.4-.6.2-.2.5-.4.7-.4.4-.1.7-.2 1-.3h-.1s-.7-.2-1.1-.4l-.1-.1v-.4s1 0 1.4-.5c0 0-.7-.2-.6-1.4.1-1.2-.1-2.3-1.2-2.2 0 0-.4-.5-1.3-.2-.3.1-1.1.4-1 2.1 0 1.7-.6 1.7-.6 1.7s.3.5 1.5.5v.3s-.1 0-.1.1c-.3.2-1.1.4-1.1.4s-.2.1-.7.3c-.4.2-.5.7-.5.7v.7c.8.6 2.9.8 3.3.8zm12.4-2.3c-.4-.2-.7-.3-.7-.3s-.7-.2-1.1-.4l-.1-.1v-.4s1 0 1.4-.5c0 0-.7-.2-.6-1.4.1-1.2-.1-2.3-1.2-2.2 0 0-.4-.5-1.3-.2-.3.1-1.1.4-1 2.1 0 1.7-.6 1.7-.6 1.7s.3.5 1.5.5v.3s-.1 0-.1.1c-.3.2-1.1.4-1.1.4h-.1c.3.1.7.2 1 .3.3.1.5.2.7.4.2.2.3.4.4.6.1.4.1.8.1 1v.1c.4 0 2.4-.2 3.1-.9v-.7c.1.3.1-.2-.3-.4z"/></svg>