<?xml version="1.0" encoding="utf-8"?>
<!-- Generator: Adobe Illustrator 18.1.1, SVG Export Plug-In . SVG Version: 6.00 Build 0)  -->
<svg version="1.2" baseProfile="tiny" id="Layer_1" xmlns="http://www.w3.org/2000/svg" xmlns:xlink="http://www.w3.org/1999/xlink"
	 x="0px" y="0px" viewBox="0 0 100 100" xml:space="preserve">
<path display="none" fill="#666666" d="M23.9,48.7c0,0.1,0.1,0.1,0.1,0.2V49c0.2,0.4,0.5,1.1,1.4,1.7c-1,0.9-2.1,2.5-1.8,5.1
	c0.3,2.5,1.6,3.8,2.7,4.4c-0.7,0.9-1.4,2.5-1,5c0.4,2.9,2.4,4.8,5.3,5.2c-0.5,1.3-0.7,3.7,0.3,5.9c1,2.1,3,2.5,5.8,3.1
	c0.4,0.1,0.9,0.2,1.4,0.3c0.6,0.1,21,0.4,33.8,0.5h8.5c1.6,0,1.7-2.4,1.7-3.3v-27L82,49.7c-0.1-0.7-0.3-1.5-8.8-1.8
	c-1.8-0.8-7-3.4-10.4-8.7c-4.4-7.1-8.7-11.5-11.6-14.5c-1.3-1.4-2.7-2.9-2.8-3.3c0-0.1,0-0.2,0-0.4c-0.2-2.8-0.6-6.6-2-8.3
	c-1-1.1-2.1-1.7-3.2-1.7c-1.3,0-3.6,0.8-4.6,5.9c-0.1,0.5-0.2,1-0.3,1.4c-0.7,3.5-1.2,5.6,0.6,8.3c2.3,3.5,4.9,9.8,4.2,10.8
	c-1,0.1-7.5,0.3-11.5,0.4c-0.2,0-5.2,0.1-8,4.7c0,0.1-0.1,0.1-0.1,0.3C22.3,45.8,23.6,48.2,23.9,48.7z"/>
<g>
	<path fill="#666666" d="M80.5,80.3l-11.2,0c-25.7-0.3-30.6-0.4-31-0.5c-0.5-0.1-0.9-0.2-1.3-0.3c-2.8-0.6-4.9-1.1-5.9-3.2
		c-1.1-2.2-0.9-4.5-0.4-5.8c-3.9-0.7-5-3.2-5.3-5.3c-0.4-2.7,0.3-4.2,1-5.1c-1-0.6-2.3-1.9-2.6-4.3c-0.3-2,0.3-3.8,1.8-5.1
		c-0.9-0.6-1.3-1.3-1.5-1.7c-0.1-0.1-0.2-0.3-0.3-0.4c-1.2-2.3-0.9-4.3-0.5-5.5v-0.2l0.1-0.2c2.8-4.7,7.8-4.8,8.1-4.8
		c4-0.1,10.5-0.3,11.5-0.4c0.7-1-1.9-7.4-4.2-10.8c-1.8-2.8-1.4-4.9-0.6-8.4c0.1-0.4,0.2-0.9,0.3-1.4c1.1-5.2,3.4-6,4.7-6
		c1.1,0,2.2,0.6,3.2,1.7c1.3,1.5,1.7,4.9,2,8c0,0.3,0,0.5,0.1,0.6c0.1,0.5,1.4,1.9,2.7,3.3c2.8,3,7.1,7.4,11.6,14.6
		c3.5,5.6,8.9,8.1,10.4,8.7c8.5,0.3,8.7,1.3,8.9,2l0,0.2v27C82.1,78.1,82.1,80.3,80.5,80.3z M38.6,77.8c1.4,0.1,21.1,0.3,30.6,0.4
		l6.2,0H80c0-0.2,0.1-0.6,0.1-1.3V50.6c-1.1-0.3-4.4-0.6-7.1-0.7l-0.2,0l-0.2-0.1c-1.2-0.5-7.5-3.2-11.5-9.6
		c-4.4-6.9-8.6-11.3-11.4-14.2c-2.1-2.2-3.2-3.3-3.3-4.4c0,0,0-0.3-0.1-0.7c-0.1-1.4-0.5-5.6-1.5-6.9c-0.5-0.6-1.1-1-1.6-1
		c-0.9,0-2,1.1-2.7,4.4c-0.1,0.5-0.2,0.9-0.3,1.4c-0.7,3.4-1,4.8,0.3,6.9c0.9,1.3,5.5,9.4,4.4,12.5c-0.2,0.7-0.7,1.1-1.3,1.3
		c-0.2,0-0.6,0.1-12.1,0.4c-0.2,0-4,0.1-6.2,3.6v0l-0.1,0.2c-0.5,1.3-0.4,2.6,0.3,4c0.2,0.2,0.3,0.4,0.3,0.6c0.2,0.3,0.3,0.7,1.1,1
		c0.4,0.1,0.8,0.5,0.9,1c0.2,0.6,0,1.2-0.5,1.6l-0.1,0.1c-1.3,0.9-1.8,2.1-1.6,3.7c0.2,1.6,0.9,2.6,2,3.1c0.5,0.2,0.9,0.6,1,1.1
		c0.1,0.6-0.2,1.2-0.6,1.5c-0.2,0.2-1.2,1.1-0.8,3.7c0.3,2.1,1.7,3.3,4.2,3.6c0.5,0,1,0.3,1.2,0.8c0.3,0.5,0.2,1.1-0.1,1.6
		c-0.4,0.6-0.8,2.6,0.2,4.5c0.6,1.2,1.8,1.5,4.5,2.1C37.8,77.6,38.2,77.7,38.6,77.8z"/>
</g>
</svg>
