<svg xmlns="http://www.w3.org/2000/svg" viewBox="0 0 24 24" enable-background="new 0 0 24 24"><path d="M6.9 18c1.4 0 2.5-1.1 2.5-2.5S8.2 13 6.9 13c-1.4 0-2.5 1.1-2.5 2.5S5.5 18 6.9 18zM7.8 19h-2C4 19 2.4 20.3 2 22h9.7c-.4-1.7-2-3-3.9-3zM14.6 15.5c0 1.4 1.1 2.5 2.5 2.5s2.5-1.1 2.5-2.5-1.1-2.5-2.5-2.5-2.5 1.1-2.5 2.5zM12 7c1.4 0 2.5-1.1 2.5-2.5S13.4 2 12 2 9.5 3.1 9.5 4.5 10.6 7 12 7zM18.1 19h-2c-1.9 0-3.4 1.3-3.9 3H22c-.4-1.7-2-3-3.9-3zM13 8h-2c-1.9 0-3.4 1.3-3.9 3h9.8c-.4-1.7-2-3-3.9-3z"/></svg>