<svg xmlns="http://www.w3.org/2000/svg" viewBox="-443.3 458.9 88.5 58.3" enable-background="new -443.3 458.9 88.5 58.3"><style type="text/css">.st0{fill:#FFFFFF;}</style><path class="st0" d="M-375 506.5s.1 3.5-.5 5c0 0-8.7 5.7-23.3 5.7v-.3.3c-14.6 0-23.3-5.7-23.3-5.7-.6-1.4-.5-5-.5-5-.2-2.6 0-7.7 4.5-8.8 6-1.5 11-3.8 11-3.8 1-1.4 1.2-4.2 1.2-4.2-1.9-2-2.7-4.5-3.1-6.7-.1.1-.3.2-.4.1-.6 0-1.3-.8-2.1-4-1-3.9-.1-4.7.9-4.7.2 0 .2 0 .4.1v-.1s-2.8-9.2 3.9-13.2c0 0-1.2-.9-1.1-2.3 0 0 3 .3 5.9.4 1.3 0 2.6-.1 3.6-.3.4-.1.8-.1 1.2-.1 2.7.1 5.4 2.2 5.8 4.3h.1c.9 0 6.3.4 3.7 11.3h.4c.9 0 1.9.8.9 4.7-.8 3.1-1.6 4-2.1 4-.2 0-.4-.1-.5-.2-.3 2.2-1.2 4.7-3.1 6.7h.1s.2 2.5 1 3.9c0 0 5.2 2.6 11.1 4.1 4.3 1.1 4.5 6.2 4.3 8.8zm-50.8.1c-.1-1.6-.1-3.9.7-6 .5-1.4 1.2-2.6 2.1-3.5 1.1-1.2 2.5-2 4.1-2.4 2-.5 3.9-1.1 5.5-1.7-.3-.1-.5-.1-.6-.2-.1 0-4.1-1.1-6-2.1-.4-.3-.7-.5-.7-.5v-2s5.5.2 8-2.5c0 0-3.8-1.1-3.1-7.9.7-6.9-.8-12.9-6.4-12.4 0 0-2.4-2.9-7.1-1.1-1.6.6-6 2.2-5.8 11.7.2 9.5-3.4 9.6-3.4 9.6s1.9 2.7 8.2 2.6v1.9s-.3.2-.7.5c-1.9 1-5.9 2.1-6 2.1-.1 0-1.3.3-3.7 1.4-2.4 1.1-2.5 3.6-2.5 3.6v4c3.7 4.2 15 5 17.5 5.1-.1 0-.1-.1-.1-.2zm68.5-12.4c-2.4-1.1-3.7-1.4-3.7-1.4-.1 0-4.1-1.1-6-2.1-.4-.3-.7-.5-.7-.5v-2s5.5.2 8-2.5c0 0-3.8-1.1-3.1-7.9.7-6.9-.8-12.9-6.4-12.4 0 0-2.4-2.9-7.1-1.1-1.6.6-6 2.2-5.8 11.7.2 9.5-3.4 9.6-3.4 9.6s1.9 2.7 8.2 2.6v1.9s-.3.2-.7.5c-1.9 1-5.9 2.1-6 2.1 0 0-.1 0-.3.1 1.6.6 3.6 1.3 5.6 1.8 1.6.4 3 1.2 4.1 2.4.9 1 1.6 2.1 2.1 3.5.7 2 .8 4.2.7 5.8v.6c2.4-.1 13.4-.9 17.1-5.1v-4s-.2-2.4-2.6-3.6z"></path></svg>