<?xml version="1.0" encoding="utf-8"?>
<!-- Generator: Adobe Illustrator 23.1.0, SVG Export Plug-In . SVG Version: 6.00 Build 0)  -->
<svg version="1.1" id="Layer_1" xmlns="http://www.w3.org/2000/svg" xmlns:xlink="http://www.w3.org/1999/xlink" x="0px" y="0px"
	 viewBox="0 0 500 500" style="enable-background:new 0 0 500 500;" xml:space="preserve">
<style type="text/css">
	.st0{fill:#FFFFFF;}
</style>
<g>
	<path class="mic0" d="M250,300.46L250,300.46c21.09,0,38.19-17.1,38.19-38.19v-64.99c0-21.09-17.1-38.19-38.19-38.19l0,0
		c-21.09,0-38.19,17.1-38.19,38.19v64.99C211.81,283.36,228.91,300.46,250,300.46z"/>
	<path class="mic0" d="M303.7,259.5h-7.93c-1.64,26.88-18.48,48.24-45.76,48.24c-27.28,0-44.12-21.36-45.76-48.24h-7.93
		c1.58,29.92,20.36,54.01,49.74,56v17.49h-9.82c-0.87,0-1.58,0.71-1.58,1.58v4.75c0,0.87,0.71,1.58,1.58,1.58h27.55
		c0.87,0,1.58-0.71,1.58-1.58v-4.75c0-0.87-0.71-1.58-1.58-1.58h-9.82V315.5C283.34,313.51,302.11,289.41,303.7,259.5z"/>
</g>
</svg>
