<svg id="Layer_1" data-name="Layer 1" xmlns="http://www.w3.org/2000/svg" viewBox="0 0 500 500"><defs><style>.cls-1{fill:#e25252;}.cls-2{fill:#fff;}</style></defs><title>иконки андре</title><circle class="cls-1" cx="250" cy="250" r="206.3"/><path class="cls-2" d="M250,313.1a48.26,48.26,0,0,0,48.26-48.26V182.72a48.26,48.26,0,0,0-96.52,0v82.12A48.26,48.26,0,0,0,250,313.1ZM211.74,182.72a38.26,38.26,0,0,1,76.52,0v82.12a38.26,38.26,0,0,1-76.52,0Z"/><path class="cls-2" d="M317.85,262.66h-10c-2.07,34-23.35,61-57.82,61s-55.75-27-57.82-61h-10c2,37.81,25.73,68.25,62.85,70.77v22.1H232.6a2,2,0,0,0-2,2v6a2,2,0,0,0,2,2h34.8a2,2,0,0,0,2-2v-6a2,2,0,0,0-2-2H255v-22.1C292.12,330.91,315.85,300.47,317.85,262.66Z"/><rect class="cls-2" x="249.45" y="92.72" width="10" height="309.72" transform="translate(-98.18 206.43) rotate(-37.56)"/><rect class="cls-1" x="240.56" y="97.57" width="10" height="309.72" transform="translate(-102.98 202.02) rotate(-37.56)"/></svg>