<svg id="Layer_1" data-name="Layer 1" xmlns="http://www.w3.org/2000/svg" viewBox="0 0 500 500"><defs><style>.cls-1{fill:#878787;}.cls-2{fill:#fff;}</style></defs><title>иконки андре</title><circle class="cls-1" cx="250" cy="250" r="206.3"/><path class="cls-2" d="M250,313.76h0a48.26,48.26,0,0,0,48.26-48.25V183.39A48.26,48.26,0,0,0,250,135.13h0a48.26,48.26,0,0,0-48.26,48.26v82.12A48.26,48.26,0,0,0,250,313.76Z"/><path class="cls-2" d="M317.85,262h-10C305.75,296,284.47,323,250,323S194.25,296,192.18,262h-10c2,37.8,25.73,68.25,62.85,70.77v22.1H232.6a2,2,0,0,0-2,2v6a2,2,0,0,0,2,2h34.8a2,2,0,0,0,2-2v-6a2,2,0,0,0-2-2H255v-22.1C292.12,330.25,315.85,299.8,317.85,262Z"/></svg>