<?xml version="1.0" standalone="no"?>
<!DOCTYPE svg PUBLIC "-//W3C//DTD SVG 20010904//EN"
 "http://www.w3.org/TR/2001/REC-SVG-20010904/DTD/svg10.dtd">
<svg version="1.0" xmlns="http://www.w3.org/2000/svg"
 width="246.000000pt" height="204.825777pt" viewBox="0 0 246.000000 204.825777"
 preserveAspectRatio="xMidYMid meet">
<metadata>
Created by potrace 1.12, written by Peter Selinger 2001-2015
</metadata>
<g transform="translate(0.000000,205.000000) scale(0.100000,-0.100000)" stroke="none">
<path d="M400 1880 l0 -170 -200 0 -200 0 0 -629 c0 -517 3 -644 15 -717 29
-170 130 -328 225 -354 26 -7 351 -10 977 -8 l938 3 53 30 c72 39 134 110 183
209 68 138 68 141 69 1024 l0 782 -1030 0 -1030 0 0 -170z m1828 -782 l-3
-723 -25 -50 c-14 -28 -40 -60 -59 -72 l-34 -23 -775 0 c-737 0 -774 1 -760
18 9 9 24 42 34 72 17 51 19 111 22 778 l3 722 800 0 800 0 -3 -722z m-1830
-200 l-3 -583 -23 -47 c-29 -58 -56 -69 -88 -37 -50 52 -54 97 -54 696 l0 553
85 0 86 0 -3 -582z"/>
<path d="M750 1565 l0 -85 680 0 680 0 0 85 0 85 -680 0 -680 0 0 -85z"/>
<path d="M750 1255 l0 -55 280 0 280 0 0 55 0 55 -280 0 -280 0 0 -55z"/>
<path d="M1430 910 l0 -400 340 0 340 0 0 400 0 400 -340 0 -340 0 0 -400z"/>
<path d="M750 1025 l0 -55 280 0 280 0 0 55 0 55 -280 0 -280 0 0 -55z"/>
<path d="M750 795 l0 -55 280 0 280 0 0 55 0 55 -280 0 -280 0 0 -55z"/>
<path d="M750 570 l0 -60 280 0 280 0 0 60 0 60 -280 0 -280 0 0 -60z"/>
</g>
</svg>
