<svg height="512pt" viewBox="0 0 512 512" width="512pt" xmlns="http://www.w3.org/2000/svg"><path d="m286.648438 342.691406-140.800782-257.238281c-1.039062-1.898437-2.835937-3.261719-4.945312-3.753906-2.109375-.492188-4.320313-.0625-6.09375 1.179687-56.433594 39.578125-90.128906 104.296875-90.128906 173.121094 0 116.523438 94.796874 211.320312 211.320312 211.320312 27.859375 0 54.957031-5.351562 80.539062-15.910156 1.996094-.824218 3.550782-2.460937 4.269532-4.496094.71875-2.039062.539062-4.285156-.5-6.183593l-53.578125-97.886719c-.027344-.050781-.054688-.101562-.082031-.152344zm-30.648438 109.417969c-108.136719 0-196.109375-87.972656-196.109375-196.109375 0-61.03125 28.546875-118.582031 76.78125-155.628906l31.546875 57.628906h-28.964844c-22.6875 0-41.140625 18.457031-41.140625 41.144531v113.714844c0 22.683594 18.453125 41.140625 41.140625 41.140625h61.570313c4.199219 0 7.605469-3.402344 7.605469-7.601562 0-4.199219-3.40625-7.605469-7.605469-7.605469h-61.570313c-14.300781 0-25.933594-11.632813-25.933594-25.933594v-113.714844c0-14.300781 11.632813-25.9375 25.933594-25.9375h37.285156l90.632813 165.585938h-35.929687c-4.199219 0-7.605469 3.402343-7.605469 7.601562s3.40625 7.605469 7.605469 7.605469h44.257812l47.304688 86.425781c-21.375 7.757813-43.808594 11.683594-66.804688 11.683594zm0 0"/><path d="m169.546875 227.917969c-15.488281 0-28.085937 12.597656-28.085937 28.082031s12.597656 28.082031 28.085937 28.082031c15.484375 0 28.082031-12.597656 28.082031-28.082031s-12.597656-28.082031-28.082031-28.082031zm0 40.957031c-7.101563 0-12.875-5.773438-12.875-12.875 0-7.097656 5.773437-12.875 12.875-12.875 7.097656 0 12.875 5.777344 12.875 12.875 0 7.101562-5.777344 12.875-12.875 12.875zm0 0"/><path d="m371.089844 430.304688c.574218.132812 1.152344.195312 1.726562.195312 1.550782 0 3.078125-.472656 4.367188-1.378906 56.433594-39.574219 90.125-104.292969 90.125-173.121094 0-116.523438-94.792969-211.320312-211.308594-211.320312-27.859375 0-54.960938 5.355468-80.546875 15.910156-1.996094.824218-3.550781 2.460937-4.269531 4.5-.71875 2.039062-.535156 4.285156.5 6.179687l148.417968 271.152344c.011719.019531.023438.042969.035157.0625l46.011719 84.0625c1.039062 1.898437 2.835937 3.265625 4.941406 3.757813zm-115.089844-370.414063c108.128906 0 196.101562 87.972656 196.101562 196.109375 0 61.03125-28.546874 118.585938-76.78125 155.628906l-38.976562-71.207031c6.796875-7.507813 10.609375-17.25 10.609375-27.566406v-6.972657l58.882813 33.269532c1.164062.65625 2.453124.984375 3.742187.984375 1.324219 0 2.648437-.347657 3.832031-1.039063 2.335938-1.359375 3.773438-3.863281 3.773438-6.566406v-149.585938c0-2.703124-1.4375-5.203124-3.773438-6.566406-2.335937-1.363281-5.21875-1.382812-7.574218-.054687l-58.882813 33.269531v-10.449219c0-22.6875-18.457031-41.144531-41.144531-41.144531h-69.316406l-47.304688-86.425781c21.378906-7.757813 43.8125-11.683594 66.8125-11.683594zm-11.183594 113.316406h60.996094c14.300781 0 25.933594 11.636719 25.933594 25.9375v23.464844.015625 70.230469.015625 19.988281c0 4.601563-1.210938 9.019531-3.433594 12.890625zm102.136719 53.855469 55.023437-31.085938v123.527344l-55.023437-31.085937zm0 0"/><path d="m460.578125 102.074219c-2.527344-3.355469-7.296875-4.027344-10.648437-1.5-3.355469 2.527343-4.027344 7.296875-1.5 10.648437 31.640624 41.992188 48.363281 92.054688 48.363281 144.777344 0 64.316406-25.046875 124.785156-70.527344 170.265625s-105.949219 70.527344-170.265625 70.527344-124.785156-25.046875-170.265625-70.527344-70.527344-105.949219-70.527344-170.265625 25.046875-124.785156 70.527344-170.265625 105.949219-70.527344 170.265625-70.527344c33.277344 0 65.492188 6.660157 95.757812 19.789063 29.234376 12.6875 55.328126 30.804687 77.550782 53.84375 2.917968 3.023437 7.730468 3.109375 10.753906.195312 3.023438-2.914062 3.109375-7.730468.195312-10.75-23.621093-24.492187-51.363281-43.75-82.449218-57.238281-32.183594-13.964844-66.4375-21.046875-101.808594-21.046875-68.378906 0-132.667969 26.628906-181.019531 74.980469-48.351563 48.351562-74.980469 112.640625-74.980469 181.019531s26.628906 132.667969 74.980469 181.019531c48.351562 48.351563 112.640625 74.980469 181.019531 74.980469s132.667969-26.628906 181.019531-74.980469c48.351563-48.351562 74.980469-112.640625 74.980469-181.019531 0-56.050781-17.78125-109.277344-51.421875-153.925781zm0 0"/></svg>