<svg height="512pt" viewBox="0 0 512 512" width="512pt" xmlns="http://www.w3.org/2000/svg"><path d="m167.972656 185.144531c-.003906-.003906-.007812-.007812-.011718-.011719l-68.316407-68.253906c-1.492187-1.488281-3.535156-2.273437-5.652343-2.1875-2.105469.101563-4.074219 1.082032-5.421876 2.707032-32.148437 38.792968-49.855468 87.9375-49.855468 138.382812 0 54.832031 20.511718 107.183594 57.761718 147.40625 37.039063 39.996094 87.257813 64.480469 141.40625 68.949219.210938.019531.417969.023437.625.023437 3.863282 0 7.144532-2.964844 7.46875-6.882812.339844-4.128906-2.730468-7.75-6.859374-8.089844-50.402344-4.160156-97.152344-26.957031-131.636719-64.191406-34.671875-37.441406-53.765625-86.171875-53.765625-137.214844 0-44.199219 14.601562-87.328125 41.273437-122.351562l49.558594 49.511718h-14.316406c-12.164063 0-22.058594 9.890625-22.058594 22.046875v101.582031c0 12.15625 9.894531 22.046876 22.058594 22.046876h51.433593c4.144532 0 7.5-3.355469 7.5-7.5 0-4.140626-3.355468-7.5-7.5-7.5h-51.433593c-3.890625 0-7.058594-3.160157-7.058594-7.046876v-101.582031c0-3.882812 3.167969-7.046875 7.058594-7.046875h29.328125l115.777344 115.675782h-58.703126c-4.144531 0-7.5 3.359374-7.5 7.5 0 4.144531 3.355469 7.5 7.5 7.5h73.71875l88.109376 88.035156c-30.6875 23.378906-67.015626 37.351562-105.578126 40.535156-4.128906.339844-7.199218 3.960938-6.855468 8.089844.339844 4.128906 3.953125 7.191406 8.089844 6.859375 44.378906-3.664063 86.007812-20.628907 120.378906-49.066407 1.625-1.347656 2.609375-3.316406 2.710937-5.429687.097657-2.109375-.699219-4.164063-2.191406-5.65625zm0 0"/><path d="m437.015625 74.914062c-48.351563-48.308593-112.636719-74.914062-181.015625-74.914062s-132.664062 26.605469-181.019531 74.914062c-48.351563 48.308594-74.980469 112.542969-74.980469 180.867188 0 68.320312 26.628906 132.554688 74.980469 180.863281 48.355469 48.308594 112.640625 74.914063 181.019531 74.914063s132.664062-26.605469 181.015625-74.914063c48.355469-48.308593 74.984375-112.542969 74.984375-180.863281 0-68.324219-26.628906-132.558594-74.984375-180.867188zm-10.601563 351.121094c-45.519531 45.480469-106.039062 70.523438-170.414062 70.523438s-124.894531-25.042969-170.414062-70.523438c-45.519532-45.476562-70.585938-105.941406-70.585938-170.253906s25.066406-124.777344 70.585938-170.257812c45.519531-45.476563 106.039062-70.523438 170.414062-70.523438s124.894531 25.046875 170.414062 70.523438c45.519532 45.480468 70.585938 105.945312 70.585938 170.257812s-25.066406 124.777344-70.585938 170.253906zm0 0"/><path d="m409.644531 102.261719c-41.042969-41-95.605469-63.582031-153.644531-63.582031-50.734375 0-100.113281 17.851562-139.039062 50.269531-1.621094 1.351562-2.597657 3.316406-2.691407 5.425781-.097656 2.105469.699219 4.152344 2.191407 5.644531l295.445312 295.1875c1.410156 1.40625 3.320312 2.191407 5.304688 2.191407.109374 0 .222656 0 .335937-.007813 2.105469-.09375 4.070313-1.070313 5.421875-2.6875 32.449219-38.890625 50.316406-88.226563 50.316406-138.925781 0-57.988282-22.601562-112.507813-63.640625-153.515625zm-79.058593 190.492187-94.894532-94.8125h87.835938c3.894531 0 7.058594 3.164063 7.058594 7.046875zm86 85.921875-71.035157-70.972656c.019531-.378906.035157-.753906.035157-1.132813v-10.136718l26.105468 13.394531c3.199219 1.644531 6.648438 2.457031 10.089844 2.457031 3.980469 0 7.945312-1.089844 11.492188-3.257812 6.609374-4.035156 10.554687-11.066406 10.554687-18.8125v-16.785156c0-4.140626-3.355469-7.5-7.5-7.5-4.140625 0-7.5 3.359374-7.5 7.5v16.785156c0 3.566406-2.359375 5.394531-3.375 6.011718-1.015625.621094-3.726563 1.894532-6.914063.257813l-32.953124-16.910156v-47.589844l32.957031-16.910156c3.183593-1.632813 5.894531-.363281 6.910156.257812 1.015625.617188 3.375 2.445313 3.375 6.011719v17.085938c0 4.144531 3.359375 7.5 7.5 7.5 4.144531 0 7.5-3.355469 7.5-7.5v-17.085938c0-7.742188-3.945313-14.777344-10.554687-18.8125-6.617188-4.042969-14.683594-4.34375-21.582032-.800781l-26.105468 13.394531v-10.136719c0-12.15625-9.894532-22.046875-22.058594-22.046875h-102.847656l-87.683594-87.605468c35.164062-26.921876 78.523437-41.65625 123.003906-41.65625 111.539062 0 202.285156 90.660156 202.285156 202.101562 0 44.441406-14.753906 87.765625-41.699218 122.894531zm0 0"/></svg>