<?xml version="1.0" encoding="utf-8"?>
<!-- Generator: Adobe Illustrator 23.1.0, SVG Export Plug-In . SVG Version: 6.00 Build 0)  -->
<svg version="1.1" id="Layer_1" xmlns="http://www.w3.org/2000/svg" xmlns:xlink="http://www.w3.org/1999/xlink" x="0px" y="0px"
	 viewBox="0 0 500 500" style="enable-background:new 0 0 500 500;" xml:space="preserve">
<style type="text/css">
	.st0{fill:#FFFFFF;}
</style>
<path class="st0" d="M133.66,294.64c0,0,47.8,3.01,53.02,2.35c5.22-0.67,15.59-3.91,13.02-21.94
	c-2.57-18.03,14.47-21.51,14.47-21.51l33.94-1.68l0,0.13l37.61,1.7c0,0,17.05,3.41,14.56,21.45c-2.49,18.04,7.89,21.23,13.12,21.88
	c5.22,0.65,53.01-2.57,53.01-2.57s12.45-1.5,13.37-15.3c0.92-13.8-17.87-66.38-67.28-71.79c-35.41-3.88-53.3-4.26-60.6-4.16l0-0.16
	c0,0-15.31-1.35-64.69,4.28c-49.39,5.63-67.96,58.29-66.97,72.08C121.21,293.19,133.66,294.64,133.66,294.64z"/>
</svg>
