<?xml version="1.0" encoding="utf-8"?>
<!-- Generator: Adobe Illustrator 19.1.0, SVG Export Plug-In . SVG Version: 6.00 Build 0)  -->
<svg version="1.1" id="Layer_1" xmlns="http://www.w3.org/2000/svg" xmlns:xlink="http://www.w3.org/1999/xlink" x="0px" y="0px"
	 viewBox="-483 489 16 16" style="enable-background:new -483 489 16 16;" xml:space="preserve">
<style type="text/css">
	.st0{fill:#f15e57;}
</style>
<path class="st0" d="M-469.3,491.3c-0.4-0.4-1-0.4-1.4,0l-4.3,4.3l-4.3-4.3c-0.4-0.4-1-0.4-1.4,0s-0.4,1,0,1.4l4.3,4.3l-4.3,4.3
	c-0.4,0.4-0.4,1,0,1.4c0.2,0.2,0.5,0.3,0.7,0.3s0.5-0.1,0.7-0.3l4.3-4.3l4.3,4.3c0.2,0.2,0.5,0.3,0.7,0.3s0.5-0.1,0.7-0.3
	c0.4-0.4,0.4-1,0-1.4l-4.3-4.3l4.3-4.3C-468.9,492.3-468.9,491.7-469.3,491.3z"/>
</svg>
