<?xml version="1.0" encoding="utf-8"?>
<!-- Generator: Adobe Illustrator 19.1.0, SVG Export Plug-In . SVG Version: 6.00 Build 0)  -->
<svg version="1.1" id="Layer_1" xmlns="http://www.w3.org/2000/svg" xmlns:xlink="http://www.w3.org/1999/xlink" x="0px" y="0px"
	 viewBox="-483 495 16 16" style="enable-background:new -483 495 16 16;" xml:space="preserve">
<style type="text/css">
	.st0{fill:#8A93A1;}
</style>
<g>
	<path class="st0" d="M-468,499h-14c-0.6,0-1-0.4-1-1l0,0c0-0.6,0.4-1,1-1h14c0.6,0,1,0.4,1,1l0,0C-467,498.6-467.4,499-468,499z"/>
	<path class="st0" d="M-468,504h-14c-0.6,0-1-0.4-1-1l0,0c0-0.6,0.4-1,1-1h14c0.6,0,1,0.4,1,1l0,0C-467,503.6-467.4,504-468,504z"/>
	<path class="st0" d="M-468,509h-14c-0.6,0-1-0.4-1-1l0,0c0-0.6,0.4-1,1-1h14c0.6,0,1,0.4,1,1l0,0C-467,508.6-467.4,509-468,509z"/>
</g>
</svg>
