<svg xmlns="http://www.w3.org/2000/svg" viewBox="0 0 24 24" enable-background="new 0 0 24 24"><path d="M20.7 20h-1c.2.6.4 1.3.4 2v2h4v-1c-.1-1.8-1.6-3-3.4-3zM21.6 16.5c0-1.4-1.1-2.5-2.5-2.5s-2.5 1.1-2.5 2.5v.1c1.1.5 2 1.4 2.6 2.4 1.3 0 2.4-1.1 2.4-2.5zM14.9 18.1c-.9.6-1.8.9-2.9.9s-2-.3-2.9-.9c-1.8.4-3.1 2-3.1 3.9v2h12v-2c0-1.9-1.3-3.5-3.1-3.9zM7.6 16.5c0-1.4-1.1-2.5-2.5-2.5s-2.5 1.1-2.5 2.5c0 1.3 1 2.3 2.2 2.5.7-1.1 1.6-2 2.8-2.5zM0 23v1h4v-2c0-.7.1-1.4.4-2h-1C1.5 20 0 21.2 0 23z"/><circle cx="12" cy="14" r="3"/><path d="M17 10c1.1 0 2-.9 2-2V2c0-1.1-.9-2-2-2H7C5.9 0 5 .9 5 2v11l3-3h9zM8 2h8v2H8V2zm0 4h8v2H8V6z"/></svg>