<?xml version="1.0" encoding="utf-8"?>
<!-- Generator: Adobe Illustrator 23.1.0, SVG Export Plug-In . SVG Version: 6.00 Build 0)  -->
<svg version="1.1" id="Layer_1" xmlns="http://www.w3.org/2000/svg" xmlns:xlink="http://www.w3.org/1999/xlink" x="0px" y="0px"
	 viewBox="0 0 500 500" style="enable-background:new 0 0 500 500;" xml:space="preserve">
<style type="text/css">
	.st0{fill:#FFFFFF;}
</style>
<path class="share0" d="M342.92,156.41H157.08c-9.1,0-16.47,7.37-16.47,16.47v154.25c0,9.1,7.37,16.47,16.47,16.47h185.84
	c9.1,0,16.47-7.37,16.47-16.47V172.88C359.39,163.78,352.02,156.41,342.92,156.41z M266.22,224.59H254v59.85
	c0,1.88-1.79,3.41-4,3.41s-4-1.53-4-3.41v-59.85h-12.22c-4.23,0-6.87-3.7-4.76-6.66l8.11-11.36l9.01-12.63c1.71-2.4,5.99-2.4,7.71,0
	l9.01,12.63l8.11,11.36C273.09,220.89,270.44,224.59,266.22,224.59z"/>
</svg>
