<svg xmlns="http://www.w3.org/2000/svg" viewBox="-411 469.5 16 16" enable-background="new -411 469.5 16 16"><style type="text/css">.st0{fill:#FFFFFF;}</style><path class="st0" d="M-401.1 477.5c0-1.5-.7-2.9-1.9-3.8-1.2.9-1.9 2.3-1.9 3.8s.7 2.9 1.9 3.8c1.2-.9 1.9-2.3 1.9-3.8zm-4.8 0c0-1.9.9-3.6 2.4-4.7-.7-.3-1.5-.5-2.3-.5-2.9 0-5.2 2.3-5.2 5.2 0 2.9 2.3 5.2 5.2 5.2.8 0 1.6-.2 2.3-.5-1.5-1.1-2.4-2.8-2.4-4.7zm5.7-5.2c-.8 0-1.6.2-2.3.5 1.5 1.1 2.4 2.8 2.4 4.7 0 1.9-.9 3.6-2.4 4.7.7.3 1.5.5 2.3.5 2.9 0 5.2-2.3 5.2-5.2 0-2.9-2.3-5.2-5.2-5.2z"/></svg>